<?xml version="1.0" encoding="UTF-8"?>
<svg version="1.1" xmlns="http://www.w3.org/2000/svg" width="764" height="240">
<path d="M0 0 C1.07186554 -0.00630432 2.14373108 -0.01260864 3.24807739 -0.019104 C4.40741791 -0.01505554 5.56675842 -0.01100708 6.76123047 -0.00683594 C7.95642303 -0.00874939 9.1516156 -0.01066284 10.38302612 -0.01263428 C12.91664846 -0.01399678 15.45027775 -0.01029581 17.98388672 -0.00195312 C21.84212188 0.00868895 25.69988539 -0.00181731 29.55810547 -0.01464844 C32.02164816 -0.01332575 34.48519055 -0.01076111 36.94873047 -0.00683594 C38.0959256 -0.0108844 39.24312073 -0.01493286 40.42507935 -0.019104 C48.25702531 0.02616193 56.41131461 0.14736463 63.12841797 4.69628906 C63.75490234 5.1075 64.38138672 5.51871094 65.02685547 5.94238281 C70.33145085 9.98683676 72.1257958 14.79011924 73.04638672 21.34472656 C73.25504948 26.37250544 72.32592977 30.94761412 69.75341797 35.25878906 C67.59184168 37.51643541 65.28359131 39.42874588 62.75341797 41.25878906 C63.45466797 41.73316406 64.15591797 42.20753906 64.87841797 42.69628906 C69.85159654 47.12890474 74.36853998 53.0566786 74.99169922 59.86035156 C75.18951184 67.91861302 74.40630125 74.02870075 69.02294922 80.26269531 C59.36413466 89.49737031 48.22677176 88.64655037 35.69091797 88.44628906 C34.04574791 88.43121658 32.40056452 88.4175327 30.75537109 88.40527344 C26.75438656 88.37246688 22.75405166 88.32082672 18.75341797 88.25878906 C18.7600798 88.91833588 18.76674164 89.57788269 18.77360535 90.25741577 C18.83981436 97.10255066 18.88515836 103.94759508 18.91821289 110.79296875 C18.93332866 113.34997246 18.95382163 115.90695012 18.97973633 118.46386719 C19.01599659 122.13255223 19.03311632 125.80089546 19.04638672 129.46972656 C19.06187057 130.61871429 19.07735443 131.76770203 19.0933075 132.95150757 C19.09353409 134.01245636 19.09376068 135.07340515 19.09399414 136.16650391 C19.10065598 137.10360199 19.10731781 138.04070007 19.11418152 139.00619507 C18.99512955 139.74955109 18.87607758 140.4929071 18.75341797 141.25878906 C15.75341797 143.25878906 15.75341797 143.25878906 13.19091797 143.07128906 C10.75341797 142.25878906 10.75341797 142.25878906 8.75341797 139.25878906 C8.51290894 136.96186829 8.51290894 136.96186829 8.52636719 134.23657227 C8.52651825 133.21574051 8.52666931 132.19490875 8.52682495 131.1431427 C8.54230881 129.49302437 8.54230881 129.49302437 8.55810547 127.80957031 C8.56093536 126.68181686 8.56376526 125.55406342 8.56668091 124.39213562 C8.57788881 120.78507948 8.60299473 117.17827034 8.62841797 113.57128906 C8.63844697 111.12793327 8.64757296 108.68457359 8.65576172 106.24121094 C8.67783014 100.24698583 8.7113138 94.25290509 8.75341797 88.25878906 C7.73916748 88.27449951 6.72491699 88.29020996 5.67993164 88.30639648 C1.9173171 88.36069225 -1.84526281 88.39513757 -5.6081543 88.42358398 C-7.23679426 88.43867149 -8.86539359 88.45914412 -10.49389648 88.48510742 C-12.83473739 88.52149355 -15.17504122 88.53851526 -17.51611328 88.55175781 C-18.24433792 88.56724167 -18.97256256 88.58272552 -19.72285461 88.59867859 C-22.67497354 88.59966162 -24.74025499 88.59458471 -27.24145508 86.93579102 C-28.24658203 85.25878906 -28.24658203 85.25878906 -28.05908203 82.13378906 C-27.79095703 81.18503906 -27.52283203 80.23628906 -27.24658203 79.25878906 C-24.18063609 77.72581609 -20.9754635 78.13747452 -17.61376953 78.16113281 C-16.48601608 78.16325523 -16.48601608 78.16325523 -15.33547974 78.16542053 C-12.93080693 78.17102441 -10.52622676 78.1835775 -8.12158203 78.19628906 C-6.49267712 78.20130357 -4.86377076 78.20586656 -3.23486328 78.20996094 C0.76126624 78.22099509 4.75732639 78.23826228 8.75341797 78.25878906 C8.75341797 74.95878906 8.75341797 71.65878906 8.75341797 68.25878906 C6.44083984 68.32839844 6.44083984 68.32839844 4.08154297 68.39941406 C2.05552067 68.43693299 0.02947742 68.47333302 -1.99658203 68.50878906 C-3.01236328 68.54230469 -4.02814453 68.57582031 -5.07470703 68.61035156 C-12.58481896 68.70916882 -12.58481896 68.70916882 -15.96142578 66.41113281 C-17.24658203 64.25878906 -17.24658203 64.25878906 -17.05908203 61.57128906 C-16.24658203 59.25878906 -16.24658203 59.25878906 -15.24658203 58.25878906 C-13.46586957 58.17152683 -11.68175063 58.15179865 -9.89892578 58.16113281 C-8.81933594 58.16435547 -7.73974609 58.16757813 -6.62744141 58.17089844 C-4.92297852 58.1834668 -4.92297852 58.1834668 -3.18408203 58.19628906 C-1.47381836 58.20305664 -1.47381836 58.20305664 0.27099609 58.20996094 C3.09849215 58.22179146 5.92596142 58.23972756 8.75341797 58.25878906 C8.75341797 54.62878906 8.75341797 50.99878906 8.75341797 47.25878906 C7.3098291 47.27449951 5.86624023 47.29020996 4.37890625 47.30639648 C-0.96218312 47.36057769 -6.30324808 47.39509613 -11.64453125 47.42358398 C-13.95902589 47.43869759 -16.27349177 47.45918902 -18.58789062 47.48510742 C-21.90908899 47.52137747 -25.22990971 47.5384895 -28.55126953 47.55175781 C-30.11069778 47.5749836 -30.11069778 47.5749836 -31.70162964 47.59867859 C-33.14289719 47.59901848 -33.14289719 47.59901848 -34.61328125 47.59936523 C-35.46155487 47.60602707 -36.30982849 47.6126889 -37.18380737 47.61955261 C-37.86452301 47.50050064 -38.54523865 47.38144867 -39.24658203 47.25878906 C-41.24658203 44.25878906 -41.24658203 44.25878906 -40.99658203 41.69628906 C-40.24658203 39.25878906 -40.24658203 39.25878906 -38.24658203 37.25878906 C-36.06559753 36.9846344 -36.06559753 36.9846344 -33.32543945 36.95239258 C-31.78825508 36.92841148 -31.78825508 36.92841148 -30.22001648 36.90394592 C-28.55287346 36.89590187 -28.55287346 36.89590187 -26.85205078 36.88769531 C-25.71254471 36.87866684 -24.57303864 36.86963837 -23.39900208 36.8603363 C-20.98388304 36.845806 -18.56872439 36.8369402 -16.15356445 36.83325195 C-12.45928399 36.82137012 -8.76668083 36.77222064 -5.07275391 36.72167969 C-2.72836103 36.71221433 -0.38395788 36.70497984 1.96044922 36.70019531 C3.6184832 36.67089684 3.6184832 36.67089684 5.31001282 36.64100647 C10.03759392 36.66878801 12.89795886 36.72196144 16.95996094 39.27099609 C19.26338012 43.10835574 19.38885461 46.2789332 19.24169922 50.62207031 C19.23462448 51.41405319 19.22754974 52.20603607 19.22026062 53.02201843 C19.19238041 55.53942295 19.12965996 58.05456262 19.06591797 60.57128906 C19.04082658 62.28284537 19.01801488 63.99443671 18.99755859 65.70605469 C18.94257544 69.8911656 18.85635214 74.07459402 18.75341797 78.25878906 C23.02255253 78.21431891 27.29030246 78.14416257 31.55859375 78.05126953 C33.00737013 78.0232287 34.45629469 78.00193095 35.90527344 77.98779297 C48.72192839 77.86110778 48.72192839 77.86110778 59.69091797 71.57128906 C62.55484277 65.33804097 61.94348853 59.52370035 60.03076172 53.10644531 C58.02324744 50.20260967 56.19104087 50.00266812 52.75341797 49.25878906 C48.05288741 48.89081707 43.34516057 48.84479075 38.63232422 48.78027344 C37.20339844 48.74063477 37.20339844 48.74063477 35.74560547 48.70019531 C34.88306152 48.68674072 34.02051758 48.67328613 33.13183594 48.65942383 C30.30356435 48.18301306 28.8915735 47.12387671 26.75341797 45.25878906 C27.0090312 42.91566776 27.34612569 40.58035503 27.75341797 38.25878906 C30.0760205 37.0974878 31.49191041 37.11999618 34.07763672 37.08300781 C34.94195312 37.05916016 35.80626953 37.0353125 36.69677734 37.01074219 C38.50644385 36.96823757 40.31640695 36.93673827 42.12646484 36.91699219 C48.13809214 36.72565246 51.8776013 35.86932172 56.75341797 32.25878906 C59.5715469 28.33825157 59.2841185 23.90241872 58.75341797 19.25878906 C57.42930455 15.98335061 56.64833445 14.69491117 53.47373962 13.14782715 C50.62548407 12.21697852 48.40393687 11.9955606 45.41577148 11.97167969 C43.85373741 11.95155823 43.85373741 11.95155823 42.26014709 11.93103027 C41.14546555 11.92575317 40.030784 11.92047607 38.88232422 11.91503906 C37.72723862 11.90041626 36.57215302 11.88579346 35.38206482 11.87072754 C31.69338418 11.82426696 28.00475692 11.7900443 24.31591797 11.75878906 C19.46285515 11.71761041 14.61016885 11.66392279 9.75732422 11.60253906 C8.08833824 11.59462341 8.08833824 11.59462341 6.38563538 11.58654785 C1.13407116 11.51910358 -3.34452052 11.39090654 -8.24658203 9.25878906 C-8.43408203 5.88378906 -8.43408203 5.88378906 -8.24658203 2.25878906 C-4.92055309 0.04143643 -3.87520328 0.00653708 0 0 Z " fill="#2A334D" transform="translate(149.24658203125,104.7412109375)"/>
<path d="M0 0 C12 0 12 0 14.53515625 1.80859375 C15.03917969 2.67613281 15.54320312 3.54367188 16.0625 4.4375 C17.00996094 5.96503906 17.00996094 5.96503906 17.9765625 7.5234375 C18.30172852 8.08643555 18.62689453 8.64943359 18.96191406 9.22949219 C20.4239278 11.7230302 22.01986267 14.12120396 23.60839844 16.53540039 C24.99568625 18.65124364 26.36263144 20.77918782 27.7265625 22.91015625 C31.3464426 28.55291052 35.01377734 34.16447564 38.68386841 39.77462769 C39.78515585 41.45819819 40.88563031 43.14230041 41.98608398 44.82641602 C42.67774658 45.88401123 43.36940918 46.94160645 44.08203125 48.03125 C44.69280518 48.96517578 45.3035791 49.89910156 45.93286133 50.86132812 C48.60505819 54.91869943 51.30511037 58.95766555 54 63 C54.33 42.21 54.66 21.42 55 0 C59.29 0 63.58 0 68 0 C68 29.04 68 58.08 68 88 C63.71 88 59.42 88 55 88 C51.86602152 84.55262367 50.14356416 82.00642349 48 78 C46.68198999 75.92767434 45.34730858 73.86589807 44 71.8125 C43.23562242 70.61805466 42.47269136 69.42268282 41.7109375 68.2265625 C37.79942525 62.10978208 33.8159163 56.03963797 29.84375 49.9621582 C24.20224569 41.32513111 18.60454562 32.66157051 13 24 C12.67 45.12 12.34 66.24 12 88 C8.04 88 4.08 88 0 88 C0 58.96 0 29.92 0 0 Z " fill="#28324A" transform="translate(307,107)"/>
<path d="M0 0 C18.48 0 36.96 0 56 0 C56 3.63 56 7.26 56 11 C41.81 11 27.62 11 13 11 C13 19.91 13 28.82 13 38 C25.21 38 37.42 38 50 38 C50 41.3 50 44.6 50 48 C37.79 48 25.58 48 13 48 C13 57.9 13 67.8 13 78 C27.19 78 41.38 78 56 78 C56 81.3 56 84.6 56 88 C37.52 88 19.04 88 0 88 C0 58.96 0 29.92 0 0 Z " fill="#2A334C" transform="translate(394,107)"/>
<path d="M0 0 C18.48 0 36.96 0 56 0 C56 3.3 56 6.6 56 10 C55 11 55 11 51.03100586 11.11352539 C49.25894393 11.1133662 47.4868774 11.10766785 45.71484375 11.09765625 C44.78402481 11.0962413 43.85320587 11.09482635 42.8941803 11.09336853 C39.90858809 11.08775172 36.92306971 11.0751964 33.9375 11.0625 C31.91862087 11.05748716 29.89974057 11.05292388 27.88085938 11.04882812 C22.92052129 11.03862587 17.9603437 11.01905382 13 11 C13 19.91 13 28.82 13 38 C25.21 38 37.42 38 50 38 C50 41.3 50 44.6 50 48 C37.79 48 25.58 48 13 48 C13 57.9 13 67.8 13 78 C27.19 78 41.38 78 56 78 C56 81.3 56 84.6 56 88 C37.52 88 19.04 88 0 88 C0 58.96 0 29.92 0 0 Z " fill="#2A334C" transform="translate(237,107)"/>
<path d="M0 0 C1.51400391 0.01740234 1.51400391 0.01740234 3.05859375 0.03515625 C4.07050781 0.04417969 5.08242188 0.05320312 6.125 0.0625 C6.90746094 0.07410156 7.68992187 0.08570312 8.49609375 0.09765625 C26.02062841 44.90064689 26.02062841 44.90064689 31.54248047 59.56933594 C32.67929968 62.58339117 33.8243894 65.59426902 34.96875 68.60546875 C35.81148457 70.83192277 36.65393688 73.05848365 37.49609375 75.28515625 C37.89497803 76.33324463 38.2938623 77.38133301 38.70483398 78.46118164 C39.25119507 79.9112561 39.25119507 79.9112561 39.80859375 81.390625 C40.13472656 82.25196045 40.46085938 83.1132959 40.796875 84.00073242 C41.49609375 86.09765625 41.49609375 86.09765625 41.49609375 88.09765625 C37.20609375 88.09765625 32.91609375 88.09765625 28.49609375 88.09765625 C27.15873761 84.64082945 25.82604634 81.18233023 24.49609375 77.72265625 C24.11453125 76.7378125 23.73296875 75.75296875 23.33984375 74.73828125 C22.97890625 73.79726562 22.61796875 72.85625 22.24609375 71.88671875 C21.9109375 71.01740723 21.57578125 70.1480957 21.23046875 69.25244141 C20.49609375 67.09765625 20.49609375 67.09765625 20.49609375 65.09765625 C8.61609375 65.09765625 -3.26390625 65.09765625 -15.50390625 65.09765625 C-16.16390625 68.06765625 -16.82390625 71.03765625 -17.50390625 74.09765625 C-18.30384747 76.45013137 -19.15346414 78.78668636 -20.06640625 81.09765625 C-20.50082031 82.21140625 -20.93523438 83.32515625 -21.3828125 84.47265625 C-22.50390625 87.09765625 -22.50390625 87.09765625 -23.50390625 88.09765625 C-25.52354824 88.17009678 -27.54557749 88.18142813 -29.56640625 88.16015625 C-30.67113281 88.15113281 -31.77585937 88.14210938 -32.9140625 88.1328125 C-33.76871094 88.12121094 -34.62335937 88.10960937 -35.50390625 88.09765625 C-34.33259542 82.18129711 -32.77215858 76.66312288 -30.5546875 71.05859375 C-30.12008965 69.93659576 -30.12008965 69.93659576 -29.67671204 68.79193115 C-28.72927135 66.34979287 -27.77293076 63.91124922 -26.81640625 61.47265625 C-26.15153483 59.76441151 -25.48732036 58.05591094 -24.82373047 56.34716797 C-23.78818466 53.68135225 -22.75198929 51.01580267 -21.71325684 48.35122681 C-19.18888153 41.87460015 -16.69267015 35.38760763 -14.2109375 28.89453125 C-13.51978044 27.08805145 -12.82861841 25.28157356 -12.13745117 23.47509766 C-11.13546321 20.85576993 -10.13407956 18.23622001 -9.13467407 15.61590576 C-8.2107423 13.19480603 -7.28349369 10.77500191 -6.35546875 8.35546875 C-6.08011795 7.63131775 -5.80476715 6.90716675 -5.52107239 6.16107178 C-3.19992541 0.12480208 -3.19992541 0.12480208 0 0 Z M2.49609375 17.09765625 C-0.60201996 24.67948832 -3.47035498 32.33278881 -6.25390625 40.03515625 C-6.66511719 41.15728516 -7.07632813 42.27941406 -7.5 43.43554688 C-7.88800781 44.50869141 -8.27601563 45.58183594 -8.67578125 46.6875 C-9.02737305 47.65550537 -9.37896484 48.62351074 -9.74121094 49.62084961 C-10.65105509 52.14358353 -10.65105509 52.14358353 -10.50390625 55.09765625 C-1.59390625 55.09765625 7.31609375 55.09765625 16.49609375 55.09765625 C14.02569165 45.97036648 14.02569165 45.97036648 11.015625 37.1171875 C10.57412109 35.93447266 10.13261719 34.75175781 9.67773438 33.53320312 C9.22591797 32.33759766 8.77410156 31.14199219 8.30859375 29.91015625 C7.84004783 28.65967259 7.37194624 27.40902235 6.90429688 26.15820312 C5.7725649 23.13636208 4.63642664 20.11625974 3.49609375 17.09765625 C3.16609375 17.09765625 2.83609375 17.09765625 2.49609375 17.09765625 Z " fill="#1C75ED" transform="translate(560.50390625,106.90234375)"/>
<path d="M0 0 C46.97435897 0 46.97435897 0 55.0625 6.4375 C55.701875 7.283125 56.34125 8.12875 57 9 C57.721875 9.825 58.44375 10.65 59.1875 11.5 C64.38153432 18.66418527 63.83515368 27.51176284 63 36 C61.46388467 42.31003065 57.29463922 46.44804078 52 50 C45.95360459 53.30037788 40.19709859 54.12875387 33.38671875 54.09765625 C31.70002075 54.09390991 31.70002075 54.09390991 29.97924805 54.09008789 C28.56297119 54.08098389 27.14669434 54.07187988 25.6875 54.0625 C21.170625 54.041875 16.65375 54.02125 12 54 C12 65.22 12 76.44 12 88 C8.04 88 4.08 88 0 88 C0 58.96 0 29.92 0 0 Z M12 11 C11.97534608 15.53897705 11.95716211 20.07791543 11.94506836 24.61694336 C11.9400286 26.16219766 11.9331968 27.70744716 11.92456055 29.25268555 C11.91247924 31.46925029 11.90676827 33.68575218 11.90234375 35.90234375 C11.89718246 36.5971434 11.89202118 37.29194305 11.88670349 38.00779724 C11.88650723 39.6722933 11.93810871 41.33665499 12 43 C14.3717568 45.3717568 20.25841118 44.2335387 23.4375 44.25 C24.87899414 44.2809375 24.87899414 44.2809375 26.34960938 44.3125 C33.79875717 44.35268421 41.37232898 43.72075326 47.5 39.125 C51.13466367 33.97589314 51.6884204 29.17392895 51 23 C49.03565961 17.32523887 45.37199338 13.68599669 40 11 C37.89471067 10.91456105 35.78668843 10.89285275 33.6796875 10.90234375 C31.79443359 10.90717773 31.79443359 10.90717773 29.87109375 10.91210938 C28.55238281 10.92048828 27.23367188 10.92886719 25.875 10.9375 C24.53515789 10.94251511 23.195314 10.94707799 21.85546875 10.95117188 C18.57026794 10.96298914 15.28515603 10.97946383 12 11 Z " fill="#176FED" transform="translate(464,107)"/>
<path d="M0 0 C4.62 0 9.24 0 14 0 C19.83330203 10.05344399 25.22521407 20.25426692 30.28051758 30.72314453 C30.72161865 31.62532715 31.16271973 32.52750977 31.6171875 33.45703125 C32.00503418 34.26116455 32.39288086 35.06529785 32.79248047 35.89379883 C33.98476313 37.97342327 35.22622115 39.40347082 37 41 C37.42667969 40.13503906 37.85335937 39.27007812 38.29296875 38.37890625 C44.68054152 25.49194325 51.3415234 12.74854665 58 0 C62.62 0 67.24 0 72 0 C71.1137552 4.43122401 70.23309402 6.7636624 68.078125 10.5859375 C67.47049316 11.66891113 66.86286133 12.75188477 66.23681641 13.86767578 C65.9127179 14.43842834 65.58861938 15.00918091 65.25469971 15.597229 C64.23282256 17.40539471 63.22881411 19.22256751 62.22802734 21.04248047 C59.06603952 26.76201231 55.84641599 32.33773938 52.1484375 37.734375 C41.30801007 54.02364016 41.18427172 69.01909862 42 88 C38.04 88 34.08 88 30 88 C30.0220752 87.09983154 30.04415039 86.19966309 30.06689453 85.2722168 C30.51308903 60.44876759 30.51308903 60.44876759 20.45996094 38.18457031 C18.36344724 35.04751269 16.5289389 31.77642016 14.66723633 28.49633789 C13.29309516 26.07590835 11.89526428 23.670988 10.48828125 21.26953125 C8.43857209 17.76005186 6.41297479 14.23950941 4.4375 10.6875 C3.78587891 9.51767578 3.78587891 9.51767578 3.12109375 8.32421875 C1.83365135 5.65513084 0.93709862 2.81129586 0 0 Z " fill="#1C72ED" transform="translate(598,107)"/>
<path d="M0 0 C155.1 0 310.2 0 470 0 C470 0.99 470 1.98 470 3 C314.9 3 159.8 3 0 3 C0 2.01 0 1.02 0 0 Z " fill="#6A7085" transform="translate(176,205)"/>
<path d="M0 0 C0.70523804 0.00404846 1.41047607 0.00809692 2.13708496 0.01226807 C2.8619812 0.01035461 3.58687744 0.00844116 4.33374023 0.00646973 C5.86698758 0.0051082 7.40024646 0.00880243 8.93347168 0.01715088 C11.28415755 0.02785129 13.63407919 0.01725498 15.98474121 0.00445557 C17.47302415 0.00577717 18.96130662 0.00833957 20.44958496 0.01226807 C21.154823 0.0082196 21.86006104 0.00417114 22.58666992 0 C27.56341011 0.04796821 27.56341011 0.04796821 29.79333496 2.27789307 C30.03384399 4.22677612 30.03384399 4.22677612 30.02038574 6.63580322 C30.02023468 7.536586 30.02008362 8.43736877 30.01992798 9.365448 C30.00960541 10.3394455 29.99928284 11.31344299 29.98864746 12.31695557 C29.98581757 13.31294769 29.98298767 14.30893982 29.98007202 15.33511353 C29.96885336 18.52449425 29.94374577 21.71359684 29.91833496 24.90289307 C29.90830734 27.06174319 29.89918111 29.22059769 29.89099121 31.37945557 C29.86890857 36.67903005 29.83541455 41.97844169 29.79333496 47.27789307 C28.68150483 46.33774432 27.57151193 45.39542261 26.46228027 44.45220947 C25.84395325 43.92769196 25.22562622 43.40317444 24.58856201 42.86276245 C22.04997396 40.6216362 19.80475821 38.17098092 17.54333496 35.65289307 C16.59425903 34.60198282 15.64503591 33.55120548 14.69567871 32.50054932 C13.97807373 31.7022168 13.97807373 31.7022168 13.24597168 30.88775635 C11.34623628 28.78240253 9.42643941 26.6959902 7.5045166 24.61090088 C6.12653932 23.11290079 4.75649545 21.60794154 3.38708496 20.10211182 C1.7235408 18.29075274 0.0376667 16.49950694 -1.67541504 14.73492432 C-2.77369629 13.58056885 -2.77369629 13.58056885 -3.89416504 12.40289307 C-4.85902832 11.41676025 -4.85902832 11.41676025 -5.84338379 10.41070557 C-7.67295686 7.54839353 -7.59248326 5.60954687 -7.20666504 2.27789307 C-4.74663717 -0.18213481 -3.35872665 0.03237302 0 0 Z " fill="#153F66" transform="translate(124.2066650390625,196.72210693359375)"/>
<path d="M0 0 C0.77070328 -0.0033284 1.54140656 -0.0066568 2.33546448 -0.01008606 C3.96883546 -0.01515835 5.60221685 -0.01749429 7.2355957 -0.01733398 C9.73991924 -0.01951905 12.24380146 -0.0376672 14.74804688 -0.05664062 C16.33202974 -0.05957472 17.9160147 -0.06155941 19.5 -0.0625 C20.25212265 -0.06968552 21.0042453 -0.07687103 21.77915955 -0.08427429 C27.08758346 -0.06085404 27.08758346 -0.06085404 29.31640625 2.16796875 C29.56640625 5.16796875 29.56640625 5.16796875 29.31640625 8.16796875 C26.46048405 11.02389095 23.61504841 10.49214438 19.7890625 10.50390625 C19.04434189 10.51056305 18.29962128 10.51721985 17.53233337 10.52407837 C15.95623243 10.53420916 14.38008855 10.53889526 12.80395508 10.53857422 C10.39137135 10.54294616 7.98061901 10.57925347 5.56835938 10.6171875 C4.03776668 10.62305587 2.50716529 10.62702513 0.9765625 10.62890625 C-0.1063633 10.6504628 -0.1063633 10.6504628 -1.21116638 10.67245483 C-4.49263985 10.64249779 -6.22849807 10.59259101 -8.67797852 8.30712891 C-9.98730185 5.52191623 -9.6185097 4.05062627 -8.68359375 1.16796875 C-6.68974596 -0.82587904 -2.73054363 0.00402921 0 0 Z " fill="#2A334B" transform="translate(101.68359375,123.83203125)"/>
<path d="M0 0 C1.12067871 0.01047363 2.24135742 0.02094727 3.39599609 0.03173828 C5.21357422 0.04140625 5.21357422 0.04140625 7.06787109 0.05126953 C8.33888672 0.06802734 9.60990234 0.08478516 10.91943359 0.10205078 C12.19818359 0.11107422 13.47693359 0.12009766 14.79443359 0.12939453 C17.96128526 0.15302775 21.12776783 0.18597449 24.29443359 0.22705078 C24.29443359 3.52705078 24.29443359 6.82705078 24.29443359 10.22705078 C20.02372802 10.31397152 15.75324902 10.36741593 11.48193359 10.41455078 C9.65952148 10.45225586 9.65952148 10.45225586 7.80029297 10.49072266 C6.05522461 10.50522461 6.05522461 10.50522461 4.27490234 10.52001953 C3.20135498 10.53572998 2.12780762 10.55144043 1.02172852 10.56762695 C-1.70556641 10.22705078 -1.70556641 10.22705078 -3.55981445 8.86889648 C-5.17280389 6.55750634 -5.05843579 4.97943194 -4.70556641 2.22705078 C-2.70556641 0.22705078 -2.70556641 0.22705078 0 0 Z " fill="#2C354D" transform="translate(138.70556640625,123.77294921875)"/>
<path d="M0 0 C8.91 0 17.82 0 27 0 C27 3.3 27 6.6 27 10 C18.09 10 9.18 10 0 10 C0 6.7 0 3.4 0 0 Z " fill="#2F3850" transform="translate(111,105)"/>
<path d="M0 0 C1.32 0.33 2.64 0.66 4 1 C5.77311816 4.20146335 6.77218542 7.53580886 8 11 C9.98 7.37 11.96 3.74 14 0 C14.99 0 15.98 0 17 0 C17 5.61 17 11.22 17 17 C16.01 17 15.02 17 14 17 C13.67 14.69 13.34 12.38 13 10 C11.68 12.31 10.36 14.62 9 17 C6.65941363 14.87219421 5.29299694 12.88437779 4 10 C3.67 12.31 3.34 14.62 3 17 C2.01 16.67 1.02 16.34 0 16 C0 10.72 0 5.44 0 0 Z " fill="#89C5F7" transform="translate(518,219)"/>
<path d="M0 0 C0.99 0 1.98 0 3 0 C3.67354499 1.43429001 4.33859701 2.87257057 5 4.3125 C5.556875 5.51326172 5.556875 5.51326172 6.125 6.73828125 C7 9 7 9 7 12 C7.66 12 8.32 12 9 12 C9.1546875 10.9790625 9.1546875 10.9790625 9.3125 9.9375 C10.14725019 6.37084011 11.49472754 3.33777806 13 0 C13.99 0 14.98 0 16 0 C16 5.61 16 11.22 16 17 C15.34 17 14.68 17 14 17 C13.67 14.03 13.34 11.06 13 8 C11.68 10.97 10.36 13.94 9 17 C8.34 17 7.68 17 7 17 C5.68 14.03 4.36 11.06 3 8 C2.67 10.97 2.34 13.94 2 17 C1.34 17 0.68 17 0 17 C0 11.39 0 5.78 0 0 Z " fill="#848A9E" transform="translate(223,219)"/>
<path d="M0 0 C0.99 0 1.98 0 3 0 C4.60546875 1.8984375 4.60546875 1.8984375 6.1875 4.375 C6.98220703 5.59316406 6.98220703 5.59316406 7.79296875 6.8359375 C9 9 9 9 9 11 C9.66 11 10.32 11 11 11 C11 7.37 11 3.74 11 0 C11.66 0 12.32 0 13 0 C13 5.61 13 11.22 13 17 C9.13209997 15.06604999 8.12365764 14.2196994 5.75 10.875 C4.96882812 9.78832031 4.96882812 9.78832031 4.171875 8.6796875 C3.78515625 8.12539062 3.3984375 7.57109375 3 7 C3 9.97 3 12.94 3 16 C2.01 16.33 1.02 16.66 0 17 C0 11.39 0 5.78 0 0 Z " fill="#85C2F6" transform="translate(576,219)"/>
<path d="M0 0 C3.5625 0.3125 3.5625 0.3125 5.5 1.8125 C5.850625 2.3075 6.20125 2.8025 6.5625 3.3125 C6.2325 4.3025 5.9025 5.2925 5.5625 6.3125 C4.94375 5.57 4.94375 5.57 4.3125 4.8125 C2.44047662 2.87863908 2.44047662 2.87863908 -1.4375 3.3125 C-1.4375 4.3025 -1.4375 5.2925 -1.4375 6.3125 C-0.303125 6.786875 0.83125 7.26125 2 7.75 C5.5625 9.3125 5.5625 9.3125 6.5625 10.3125 C6.75 12.75 6.75 12.75 6.5625 15.3125 C4.5625 17.3125 4.5625 17.3125 1.125 17.5625 C-2.4375 17.3125 -2.4375 17.3125 -5.4375 15.3125 C-5.4375 13.9925 -5.4375 12.6725 -5.4375 11.3125 C-4.7775 11.3125 -4.1175 11.3125 -3.4375 11.3125 C-2.4475 12.7975 -2.4475 12.7975 -1.4375 14.3125 C1.14630177 14.56280977 1.14630177 14.56280977 3.5625 14.3125 C3.2325 13.3225 2.9025 12.3325 2.5625 11.3125 C0.83 10.6628125 0.83 10.6628125 -0.9375 10 C-2.0925 9.443125 -3.2475 8.88625 -4.4375 8.3125 C-5.5 5.25 -5.5 5.25 -5.4375 2.3125 C-3.4375 0.3125 -3.4375 0.3125 0 0 Z " fill="#68B3F4" transform="translate(635.4375,218.6875)"/>
<path d="M0 0 C2 2 2 2 2 6 C1.34 6 0.68 6 0 6 C-0.33 4.68 -0.66 3.36 -1 2 C-2.65 2.33 -4.3 2.66 -6 3 C-6.33 3.99 -6.66 4.98 -7 6 C-5.88625 6.28875 -4.7725 6.5775 -3.625 6.875 C0 8 0 8 2 10 C2.3125 12.5 2.3125 12.5 2 15 C-1.46998729 17.31332486 -2.92509248 17.33957563 -7 17 C-7.99 16.34 -8.98 15.68 -10 15 C-10 13.68 -10 12.36 -10 11 C-9.34 11 -8.68 11 -8 11 C-7.54625 11.515625 -7.0925 12.03125 -6.625 12.5625 C-5.820625 13.2740625 -5.820625 13.2740625 -5 14 C-2.83700789 13.77242269 -2.83700789 13.77242269 -1 13 C-1 12.34 -1 11.68 -1 11 C-2.11375 10.54625 -3.2275 10.0925 -4.375 9.625 C-8 8 -8 8 -10 6 C-9.75 3.4375 -9.75 3.4375 -9 1 C-5.98675805 -0.50662097 -3.31713623 -0.17770373 0 0 Z " fill="#8C91A3" transform="translate(187,219)"/>
<path d="M0 0 C0.66 0 1.32 0 2 0 C3.00419637 2.4566947 4.00350501 4.91518353 5 7.375 C5.28617187 8.07367188 5.57234375 8.77234375 5.8671875 9.4921875 C8 14.7734375 8 14.7734375 8 17 C7.01 16.67 6.02 16.34 5 16 C4.67 15.34 4.34 14.68 4 14 C1.67843403 13.59270772 -0.6568787 13.25561323 -3 13 C-3.33 14.32 -3.66 15.64 -4 17 C-4.66 17 -5.32 17 -6 17 C-5.45388522 11.81190963 -3.84540159 3.84540159 0 0 Z M0 5 C-0.33 6.65 -0.66 8.3 -1 10 C0.32 9.67 1.64 9.34 3 9 C2.34 7.68 1.68 6.36 1 5 C0.67 5 0.34 5 0 5 Z " fill="#70B8F5" transform="translate(471,219)"/>
<path d="M0 0 C1.423125 -0.061875 2.84625 -0.12375 4.3125 -0.1875 C5.51326172 -0.23970703 5.51326172 -0.23970703 6.73828125 -0.29296875 C9 0 9 0 10.796875 1.3203125 C12 3 12 3 11.9375 6.0625 C11 9 11 9 9.25 10.375 C6.73711854 11.07302263 4.59626911 11.14423717 2 11 C2 12.98 2 14.96 2 17 C1.34 17 0.68 17 0 17 C0 11.39 0 5.78 0 0 Z M2 3 C2.33 4.65 2.66 6.3 3 8 C4.65 8 6.3 8 8 8 C8.33 6.35 8.66 4.7 9 3 C6.69 3 4.38 3 2 3 Z " fill="#73BAF5" transform="translate(441,219)"/>
<path d="M0 0 C8 0 8 0 10.47265625 1.1875 C12.47341803 3.56180554 12.50618492 4.92291572 12.4375 8 C12.43621094 8.86625 12.43492187 9.7325 12.43359375 10.625 C11.92433965 13.41442784 11.20311114 14.27629446 9 16 C7 17 7 17 0 17 C0 11.39 0 5.78 0 0 Z M2 2 C2 6.29 2 10.58 2 15 C7.74813012 14.63936201 7.74813012 14.63936201 10 12 C10.47899838 7.31683466 10.47899838 7.31683466 8.8125 3.0625 C6.6312462 1.57856708 6.6312462 1.57856708 2 2 Z " fill="#7E8398" transform="translate(395,219)"/>
<path d="M0 0 C3.3 0 6.6 0 10 0 C9.67 0.99 9.34 1.98 9 3 C6.69 3 4.38 3 2 3 C2 4.32 2 5.64 2 7 C4.31 7 6.62 7 9 7 C8.67 7.99 8.34 8.98 8 10 C5.03 9.505 5.03 9.505 2 9 C2 10.98 2 12.96 2 15 C4.64 15 7.28 15 10 15 C10 15.66 10 16.32 10 17 C6.7 17 3.4 17 0 17 C0 11.39 0 5.78 0 0 Z " fill="#55AAF3" transform="translate(551,219)"/>
<path d="M0 0 C1.423125 -0.061875 2.84625 -0.12375 4.3125 -0.1875 C5.51326172 -0.23970703 5.51326172 -0.23970703 6.73828125 -0.29296875 C9 0 9 0 10.7734375 1.3515625 C12.48891217 3.65707304 12.35928679 5.19756307 12 8 C10 10 10 10 8.0546875 10.1953125 C6.03645833 10.13020833 4.01822917 10.06510417 2 10 C2 12.31 2 14.62 2 17 C1.34 17 0.68 17 0 17 C0 11.39 0 5.78 0 0 Z M2 2 C2 3.98 2 5.96 2 8 C3.98 8 5.96 8 8 8 C8.38218767 6.34385343 8.71395102 4.67542976 9 3 C7.87465895 1.64381501 7.87465895 1.64381501 4.9375 1.9375 C3.968125 1.958125 2.99875 1.97875 2 2 Z " fill="#767C92" transform="translate(255,219)"/>
<path d="M0 0 C3.63 0 7.26 0 11 0 C11 0.66 11 1.32 11 2 C8.36 2 5.72 2 3 2 C3 3.65 3 5.3 3 7 C5.31 7 7.62 7 10 7 C10 7.66 10 8.32 10 9 C7.69 9 5.38 9 3 9 C3 11.64 3 14.28 3 17 C2.01 17 1.02 17 0 17 C0 11.39 0 5.78 0 0 Z " fill="#8D92A4" transform="translate(325,219)"/>
<path d="M0 0 C3.3 0 6.6 0 10 0 C10 0.66 10 1.32 10 2 C7.36 2 4.72 2 2 2 C2 3.65 2 5.3 2 7 C4.31 7 6.62 7 9 7 C9 7.66 9 8.32 9 9 C6.69 9 4.38 9 2 9 C2 10.98 2 12.96 2 15 C4.64 15 7.28 15 10 15 C10 15.66 10 16.32 10 17 C6.7 17 3.4 17 0 17 C0 11.39 0 5.78 0 0 Z " fill="#737990" transform="translate(370,219)"/>
<path d="M0 0 C2.64 0 5.28 0 8 0 C8 3.3 8 6.6 8 10 C5.36 10 2.72 10 0 10 C0 6.7 0 3.4 0 0 Z " fill="#373F56" transform="translate(121,163)"/>
<path d="M0 0 C2.5 0.25 2.5 0.25 4.5 2.25 C4.75 5.25 4.75 5.25 4.5 8.25 C2.5 10.25 2.5 10.25 0 10.5 C-2.5 10.25 -2.5 10.25 -4.5 8.25 C-4.75 5.25 -4.75 5.25 -4.5 2.25 C-2.5 0.25 -2.5 0.25 0 0 Z " fill="#434B62" transform="translate(115.5,182.75)"/>
<path d="M0 0 C1.890625 0.33984375 1.890625 0.33984375 4 1 C5.75 3.5625 5.75 3.5625 7 6 C7.598125 5.01 8.19625 4.02 8.8125 3 C9.8953125 1.515 9.8953125 1.515 11 0 C11.99 0 12.98 0 14 0 C12.9475548 2.75254898 11.82342035 5.33196973 10.4375 7.9375 C8.98926403 11.02287228 8.40091136 13.63234459 8 17 C7.34 17 6.68 17 6 17 C5.90203125 16.443125 5.8040625 15.88625 5.703125 15.3125 C4.58748557 9.6188919 2.77761221 5.09228905 0 0 Z " fill="#70B9F5" transform="translate(490,219)"/>
<path d="M0 0 C4.29 0 8.58 0 13 0 C13 0.66 13 1.32 13 2 C11.68 2.33 10.36 2.66 9 3 C8.67 7.62 8.34 12.24 8 17 C7.34 17 6.68 17 6 17 C5.67 12.38 5.34 7.76 5 3 C3.35 2.67 1.7 2.34 0 2 C0 1.34 0 0.68 0 0 Z " fill="#6FB6F5" transform="translate(603,219)"/>
<path d="M0 0 C4.875 0.875 4.875 0.875 6 2 C6.25 4.4375 6.25 4.4375 6 7 C2.53001271 9.31332486 1.07490752 9.33957563 -3 9 C-3.99 8.34 -4.98 7.68 -6 7 C-6 5.68 -6 4.36 -6 3 C-5.34 3 -4.68 3 -4 3 C-3.54625 3.515625 -3.0925 4.03125 -2.625 4.5625 C-1.820625 5.2740625 -1.820625 5.2740625 -1 6 C1.16299211 5.77242269 1.16299211 5.77242269 3 5 C3 4.34 3 3.68 3 3 C2.01 2.67 1.02 2.34 0 2 C0 1.34 0 0.68 0 0 Z " fill="#878CA0" transform="translate(183,227)"/>
<path d="M0 0 C0.99 0 1.98 0 3 0 C3 5.28 3 10.56 3 16 C2.01 16.33 1.02 16.66 0 17 C0 11.39 0 5.78 0 0 Z " fill="#A6AAB8" transform="translate(204,219)"/>
<path d="M0 0 C0.66 0 1.32 0 2 0 C2 4.95 2 9.9 2 15 C4.64 15 7.28 15 10 15 C10 15.66 10 16.32 10 17 C6.7 17 3.4 17 0 17 C0 11.39 0 5.78 0 0 Z " fill="#71778E" transform="translate(282,219)"/>
<path d="M0 0 C0.99 0 1.98 0 3 0 C3 5.61 3 11.22 3 17 C2.34 17 1.68 17 1 17 C1 13.37 1 9.74 1 6 C0.34 6 -0.32 6 -1 6 C-0.67 4.02 -0.34 2.04 0 0 Z " fill="#73798F" transform="translate(236,219)"/>
<path d="M0 0 C0.99 0 1.98 0 3 0 C3.33 1.98 3.66 3.96 4 6 C3.34 6 2.68 6 2 6 C2 9.63 2 13.26 2 17 C1.34 17 0.68 17 0 17 C0 11.39 0 5.78 0 0 Z " fill="#72788E" transform="translate(223,219)"/>
<path d="M0 0 C0.33 0 0.66 0 1 0 C1.125 2.375 1.125 2.375 1 5 C-1 7 -1 7 -4.4375 7.25 C-8 7 -8 7 -11 5 C-11 3.68 -11 2.36 -11 1 C-10.34 1 -9.68 1 -9 1 C-8.34 1.99 -7.68 2.98 -7 4 C-4.41619823 4.25030977 -4.41619823 4.25030977 -2 4 C-1.67 3.01 -1.34 2.02 -1 1 C-0.67 0.67 -0.34 0.34 0 0 Z " fill="#BCDEFA" transform="translate(641,229)"/>
<path d="M0 0 C0.66 0 1.32 0 2 0 C2 5.61 2 11.22 2 17 C0.68 16.34 -0.64 15.68 -2 15 C-1.67 14.01 -1.34 13.02 -1 12 C-0.77674186 9.94106379 -0.59294241 7.87766347 -0.4375 5.8125 C-0.35371094 4.72582031 -0.26992188 3.63914063 -0.18359375 2.51953125 C-0.12300781 1.68808594 -0.06242188 0.85664063 0 0 Z " fill="#6AB4F4" transform="translate(587,219)"/>
<path d="M0 0 C2.97 0 5.94 0 9 0 C9 0.99 9 1.98 9 3 C6.69 3 4.38 3 2 3 C2 7.62 2 12.24 2 17 C1.34 17 0.68 17 0 17 C0 11.39 0 5.78 0 0 Z " fill="#9CCEF8" transform="translate(441,219)"/>
<path d="M0 0 C2.64 0 5.28 0 8 0 C8 0.33 8 0.66 8 1 C5.69 1 3.38 1 1 1 C1 2.32 1 3.64 1 5 C3.31 5 5.62 5 8 5 C7.67 5.99 7.34 6.98 7 8 C4.03 7.505 4.03 7.505 1 7 C1 8.98 1 10.96 1 13 C0.67 13 0.34 13 0 13 C0 8.71 0 4.42 0 0 Z " fill="#B3D9F9" transform="translate(552,221)"/>
<path d="M0 0 C3.08089673 2.77280706 4.68775452 5.06326356 6 9 C6.66 9 7.32 9 8 9 C7 11 7 11 5 12 C4.17977251 10.92250558 3.36913831 9.83770492 2.5625 8.75 C2.11003906 8.14671875 1.65757812 7.5434375 1.19140625 6.921875 C-0.04997458 4.91938526 -0.64748908 3.32359313 -1 1 C-0.67 0.67 -0.34 0.34 0 0 Z " fill="#92C8F7" transform="translate(579,221)"/>
<path d="M0 0 C0.66 0 1.32 0 2 0 C2 5.61 2 11.22 2 17 C1.34 17 0.68 17 0 17 C0 11.39 0 5.78 0 0 Z " fill="#5E647E" transform="translate(307,219)"/>
<path d="M0 0 C0.66 0 1.32 0 2 0 C2 5.61 2 11.22 2 17 C1.34 17 0.68 17 0 17 C0 11.39 0 5.78 0 0 Z " fill="#6E748C" transform="translate(351,219)"/>
<path d="M0 0 C3.625 0.25 3.625 0.25 5.5625 1.75 C5.913125 2.245 6.26375 2.74 6.625 3.25 C6.295 4.24 5.965 5.23 5.625 6.25 C5.00625 5.5075 5.00625 5.5075 4.375 4.75 C2.50297662 2.81613908 2.50297662 2.81613908 -1.375 3.25 C-2.035 4.24 -2.695 5.23 -3.375 6.25 C-3.75718767 4.59385343 -4.08895102 2.92542976 -4.375 1.25 C-3.375 0.25 -3.375 0.25 0 0 Z " fill="#90C7F7" transform="translate(635.375,218.75)"/>
<path d="M0 0 C4 1 4 1 5.265625 2.62890625 C6.17708333 4.41927083 7.08854167 6.20963542 8 8 C7.34 8 6.68 8 6 8 C5.67 8.66 5.34 9.32 5 10 C3.35 6.7 1.7 3.4 0 0 Z " fill="#8BC5F7" transform="translate(490,219)"/>
<path d="M0 0 C3.3 0.33 6.6 0.66 10 1 C9.67 1.66 9.34 2.32 9 3 C6.69 2.67 4.38 2.34 2 2 C1.67 3.32 1.34 4.64 1 6 C0.34 6 -0.32 6 -1 6 C-0.67 4.02 -0.34 2.04 0 0 Z " fill="#A6D4F9" transform="translate(466,230)"/>
<path d="M0 0 C0.66 2.31 1.32 4.62 2 7 C1.01 6.67 0.02 6.34 -1 6 C-1 4.68 -1 3.36 -1 2 C-3.31 2 -5.62 2 -8 2 C-8 1.67 -8 1.34 -8 1 C-2.25 0 -2.25 0 0 0 Z " fill="#6BB7F5" transform="translate(477,229)"/>
<path d="M0 0 C2 3 2 3 1.625 5.1875 C1.41875 5.785625 1.2125 6.38375 1 7 C-0.98 7 -2.96 7 -5 7 C-4.67 6.01 -4.34 5.02 -4 4 C-4 4.66 -4 5.32 -4 6 C-3.01 5.67 -2.02 5.34 -1 5 C-0.67 3.35 -0.34 1.7 0 0 Z " fill="#A2D1F8" transform="translate(474,223)"/>
<path d="M0 0 C0.99 0 1.98 0 3 0 C1.92598892 2.91517292 1.22189824 4.77810176 -1 7 C-1.66 7 -2.32 7 -3 7 C-1.125 2.25 -1.125 2.25 0 0 Z " fill="#90C8F7" transform="translate(501,219)"/>
<path d="M0 0 C0.66 0 1.32 0 2 0 C2.66 0.99 3.32 1.98 4 3 C6.56282742 3.72965366 6.56282742 3.72965366 9 4 C9 4.33 9 4.66 9 5 C6.36 5 3.72 5 1 5 C0.67 3.35 0.34 1.7 0 0 Z " fill="#69B4F4" transform="translate(630,230)"/>
<path d="M0 0 C4.875 0.875 4.875 0.875 6 2 C6.04063832 3.66617115 6.042721 5.33388095 6 7 C5.566875 6.360625 5.13375 5.72125 4.6875 5.0625 C3.08760823 2.73253997 3.08760823 2.73253997 0 2 C0 1.34 0 0.68 0 0 Z " fill="#757B91" transform="translate(183,227)"/>
<path d="M0 0 C1.9451 2.91765 2.45276317 4.62537285 3 8 C2.01 8.495 2.01 8.495 1 9 C-1.125 2.25 -1.125 2.25 0 0 Z " fill="#9297A9" transform="translate(227,223)"/>
</svg>
