<?xml version="1.0" standalone="no"?>
<!DOCTYPE svg PUBLIC "-//W3C//DTD SVG 20010904//EN"
 "http://www.w3.org/TR/2001/REC-SVG-20010904/DTD/svg10.dtd">
<svg version="1.0" xmlns="http://www.w3.org/2000/svg"
 width="558.000000pt" height="255.000000pt" viewBox="0 0 558.000000 255.000000"
 preserveAspectRatio="xMidYMid meet">

<g transform="translate(0.000000,255.000000) scale(0.100000,-0.100000)"
fill="#000000" stroke="none">
<path d="M1372 2298 l-42 -22 39 -40 c43 -45 61 -76 61 -103 0 -12 -8 -7 -24
18 -16 23 -43 44 -75 57 -67 30 -78 28 -39 -7 18 -16 41 -43 51 -59 l17 -31
-66 35 c-36 19 -76 34 -90 34 -23 0 -104 -46 -104 -59 0 -4 25 -31 56 -61 108
-106 255 -304 341 -460 16 -30 52 -104 79 -165 120 -271 268 -409 524 -490 50
-16 112 -27 149 -28 57 -2 65 1 82 23 31 41 12 77 -67 125 -112 68 -185 159
-214 265 -21 78 -19 75 -33 55 -21 -27 -52 -15 -52 20 0 34 31 48 50 21 10
-12 13 13 19 122 3 75 9 180 12 233 9 137 12 134 -133 134 -129 0 -172 10
-242 57 -24 16 -41 23 -39 16 3 -7 44 -131 92 -276 53 -159 97 -273 111 -290
13 -15 48 -40 79 -57 31 -16 56 -33 56 -36 0 -3 -28 -9 -62 -12 -71 -7 -119
10 -150 53 -11 15 -44 139 -83 315 -36 160 -78 331 -94 380 -16 50 -38 123
-50 162 -29 99 -69 117 -159 71z m626 -580 c4 -33 -31 -49 -55 -25 -24 24 -8
59 25 55 21 -2 28 -9 30 -30z m-13 -113 c0 -25 -4 -30 -25 -30 -16 0 -26 6
-28 18 -6 30 6 49 30 45 18 -2 23 -9 23 -33z m20 -94 c0 -34 -30 -51 -51 -29
-25 24 -10 60 24 56 21 -2 27 -8 27 -27z m-98 -417 c60 -46 150 -91 238 -121
53 -17 60 -22 30 -17 -104 14 -244 82 -304 148 -34 36 -20 33 36 -10z"/>
<path d="M1053 2089 c-14 -14 19 -86 81 -178 20 -30 30 -48 21 -41 -9 7 -38
47 -66 89 -27 41 -49 72 -49 67 0 -11 47 -90 102 -173 27 -40 47 -73 45 -73
-9 0 -85 107 -128 179 -35 60 -45 70 -47 52 -4 -27 25 -73 177 -276 62 -82
161 -222 219 -310 74 -111 138 -192 207 -264 238 -248 419 -342 570 -300 l40
12 -88 23 c-232 62 -394 174 -502 348 -26 42 -72 131 -102 198 -97 214 -228
408 -388 576 -62 65 -83 81 -92 71z"/>
<path d="M1600 2092 c0 -16 56 -83 88 -105 47 -32 132 -57 193 -57 59 0 72 15
22 25 -62 11 -137 43 -222 94 -45 27 -81 46 -81 43z"/>
<path d="M3997 1923 c-4 -3 -7 -242 -7 -530 l0 -523 100 0 100 0 0 355 c0 195
3 355 8 354 4 0 56 -77 117 -172 105 -165 239 -373 313 -485 l34 -53 102 3
101 3 3 505 c1 278 0 515 -3 528 -5 22 -9 23 -103 20 l-97 -3 -5 -359 -5 -359
-160 249 c-245 382 -281 438 -299 457 -13 14 -33 17 -104 17 -49 0 -92 -3 -95
-7z"/>
<path d="M2100 1836 l0 -84 184 -4 c206 -3 222 -8 259 -79 23 -44 18 -129 -10
-167 -36 -50 -76 -62 -200 -62 l-113 0 0 -79 0 -80 51 -3 51 -3 91 -165 c51
-91 101 -182 112 -203 l20 -37 117 0 c65 0 118 2 118 4 0 2 -54 97 -120 212
l-120 209 48 21 c112 49 172 138 180 265 6 109 -15 168 -88 240 -85 86 -137
99 -386 99 l-194 0 0 -84z"/>
<path d="M2962 1533 l3 -388 27 -57 c51 -110 143 -185 260 -213 166 -39 328 4
431 114 55 59 83 117 97 204 5 34 10 212 10 395 l0 332 -105 0 -105 0 0 -348
c0 -292 -3 -356 -16 -395 -34 -100 -142 -148 -259 -116 -56 16 -92 44 -118 92
-21 41 -22 52 -25 405 l-3 362 -100 0 -100 0 3 -387z"/>
<path d="M460 1805 c0 -13 32 -15 230 -15 198 0 230 2 230 15 0 13 -32 15
-230 15 -198 0 -230 -2 -230 -15z"/>
<path d="M417 1623 c-4 -3 -7 -10 -7 -15 0 -4 153 -8 339 -8 292 0 340 2 345
15 5 13 -36 15 -333 15 -186 0 -341 -3 -344 -7z"/>
<path d="M640 1430 c0 -6 115 -10 325 -10 210 0 325 4 325 10 0 6 -115 10
-325 10 -210 0 -325 -4 -325 -10z"/>
<path d="M497 1253 c-4 -3 -7 -10 -7 -15 0 -4 211 -8 470 -8 411 0 470 2 470
15 0 13 -58 15 -463 15 -255 0 -467 -3 -470 -7z"/>
<path d="M980 1055 c0 -13 42 -15 315 -15 273 0 315 2 315 15 0 13 -42 15
-315 15 -273 0 -315 -2 -315 -15z"/>
<path d="M980 865 c0 -13 53 -15 415 -15 362 0 415 2 415 15 0 13 -53 15 -415
15 -362 0 -415 -2 -415 -15z"/>
<path d="M1700 617 c-62 -31 -45 -111 29 -137 52 -18 71 -42 55 -67 -17 -27
-70 -29 -84 -4 -10 21 -40 29 -40 12 0 -4 9 -20 21 -35 29 -37 89 -37 118 0
39 50 15 105 -51 119 -53 12 -73 76 -27 90 20 7 59 -10 59 -25 0 -6 9 -10 20
-10 17 0 18 3 9 24 -11 23 -47 46 -72 46 -7 0 -23 -6 -37 -13z"/>
<path d="M2784 623 c-40 -8 -76 -58 -82 -112 -8 -90 36 -151 110 -151 48 0 87
24 104 67 45 106 -30 217 -132 196z m89 -54 c23 -29 31 -62 23 -105 -9 -47
-38 -74 -80 -74 -54 0 -78 27 -84 93 -4 53 -2 58 27 88 27 26 37 30 64 25 18
-3 40 -16 50 -27z"/>
<path d="M3775 605 c-49 -48 -21 -113 56 -130 52 -12 58 -75 8 -88 -14 -4 -29
2 -46 19 -27 27 -43 31 -43 9 0 -48 98 -75 133 -37 28 30 30 65 7 95 -12 15
-26 27 -32 27 -5 0 -25 7 -44 16 -24 12 -34 23 -34 40 0 42 69 57 84 19 7 -19
36 -19 36 -1 0 21 -48 56 -77 56 -13 0 -35 -11 -48 -25z"/>
<path d="M2170 490 c0 -109 2 -130 15 -130 12 0 15 13 15 60 l0 60 60 0 60 0
0 -60 c0 -47 3 -60 15 -60 13 0 15 21 15 130 0 109 -2 130 -15 130 -12 0 -15
-13 -15 -55 l0 -55 -60 0 -60 0 0 55 c0 42 -3 55 -15 55 -13 0 -15 -21 -15
-130z"/>
<path d="M3280 490 l0 -130 60 0 c47 0 60 3 60 15 0 11 -12 15 -45 15 l-45 0
0 45 0 45 40 0 c29 0 40 4 40 15 0 11 -11 15 -40 15 l-40 0 0 45 0 45 45 0
c25 0 45 5 45 10 0 6 -27 10 -60 10 l-60 0 0 -130z"/>
</g>
</svg>
